<svg version="1.2" xmlns="http://www.w3.org/2000/svg" viewBox="0 0 491 491" width="491" height="491"><style>.a{fill:#607d8b}.b{fill:#ce1000}</style><path class="a" d="m472.3 216.5l-227.1 227.2-227.1-227.2c-4.2-4.1-11-3.9-15.1 0.3-4 4.1-4 10.7 0 14.8l234.7 234.7c4.1 4.1 10.9 4.1 15.1 0l234.6-234.7c4.1-4.2 4-11-0.2-15.1-4.2-4-10.7-4-14.9 0z"/><path class="a" d="m472.3 24.5l-227.1 227.2-227.1-227.2c-4.2-4.1-11-3.9-15.1 0.3-4 4.1-4 10.7 0 14.8l234.7 234.7c4.1 4.1 10.9 4.1 15.1 0l234.6-234.7c4.3-4.1 4.4-10.8 0.3-15.1-4.1-4.2-10.9-4.3-15.1-0.2q-0.1 0.1-0.3 0.2z"/><path class="b" d="m245.2 469.4c-2.8 0-5.5-1.1-7.5-3.1l-234.7-234.7c-4.1-4.2-4-11 0.3-15 4.1-4 10.6-4 14.8 0l227.1 227.1 227.1-227.2c4.3-4.1 11-3.9 15.1 0.3 4 4.1 4 10.7 0 14.8l-234.7 234.7c-2 2-4.7 3.1-7.5 3.1z"/><path class="b" d="m245.2 277.4c-2.8 0-5.5-1.1-7.5-3.1l-234.7-234.7c-4.1-4.2-4-11 0.3-15 4.1-4 10.6-4 14.8 0l227.1 227.1 227.1-227.2c4.1-4.2 10.9-4.3 15.1-0.2 4.2 4.1 4.4 10.8 0.3 15.1q-0.2 0.1-0.3 0.2l-234.7 234.7c-2 2-4.7 3.1-7.5 3.1z"/></svg>